<?xml version="1.0"?>
<!-- Generated by SVGo -->
<svg width="314.802mm" height="105.252mm"
     viewBox="0.000 0.000 314.802 105.252"
     xmlns="http://www.w3.org/2000/svg" 
     xmlns:xlink="http://www.w3.org/1999/xlink">
<polygon points="309.614,59.326 307.275,59.326 307.275,58.626 308.075,58.626 308.075,55.526 307.275,55.526 307.275,49.725 308.075,49.725 308.075,46.626 307.275,46.626 307.275,45.626 293.275,45.626 293.275,46.626 292.475,46.626 292.475,49.725 293.275,49.725 293.275,55.526 292.475,55.526 292.475,58.626 293.275,58.626 293.275,59.626 304.993,59.626 304.644,59.803 304.091,60.356 303.736,61.053 303.614,61.825 303.736,62.599 304.091,63.295 304.644,63.849 305.340,64.204 306.113,64.326 309.614,64.326 309.614,100.090 5.189,100.090 5.189,64.326 8.689,64.326 9.462,64.204 10.158,63.849 10.711,63.295 11.066,62.599 11.189,61.826 11.066,61.053 10.711,60.356 10.158,59.803 9.462,59.448 8.690,59.326 5.189,59.326 5.189,5.163 309.614,5.163" style="fill:none;stroke-width:0.050000mm;stroke:black"/>
<polygon points="128.970,83.725 128.970,84.725 128.169,84.725 128.169,87.826 128.970,87.826 128.970,88.425 89.345,88.425 89.345,85.195 87.620,85.195 87.620,84.275 84.320,84.275 84.320,85.195 82.595,85.195 82.595,88.425 81.770,88.425 81.770,91.225 82.595,91.225 82.595,97.495 84.320,97.495 84.320,98.475 87.620,98.475 87.620,97.495 89.345,97.495 89.345,93.025 128.970,93.025 128.970,93.626 128.169,93.626 128.169,96.725 128.970,96.725 128.970,97.725 142.970,97.725 142.970,96.725 143.769,96.725 143.769,93.626 142.970,93.626 142.970,93.025 182.595,93.025 182.595,97.495 184.320,97.495 184.320,98.475 187.620,98.475 187.620,97.495 189.345,97.495 189.345,91.225 190.169,91.225 190.169,88.425 189.345,88.425 189.345,85.195 187.620,85.195 187.620,84.275 184.320,84.275 184.320,85.195 182.595,85.195 182.595,88.425 142.970,88.425 142.970,87.826 143.769,87.826 143.769,84.725 142.970,84.725 142.970,83.725" style="fill:none;stroke-width:0.050000mm;stroke:black"/>
<polygon points="293.275,83.725 293.275,84.725 292.475,84.725 292.475,87.826 293.275,87.826 293.275,93.626 292.475,93.626 292.475,96.725 293.275,96.725 293.275,97.725 307.275,97.725 307.275,96.725 308.075,96.725 308.075,93.626 307.275,93.626 307.275,87.826 308.075,87.826 308.075,84.725 307.275,84.725 307.275,83.725" style="fill:none;stroke-width:0.050000mm;stroke:black"/>
<polygon points="274.225,83.725 274.225,84.725 273.425,84.725 273.425,87.826 274.225,87.826 274.225,93.626 273.425,93.626 273.425,96.725 274.225,96.725 274.225,97.725 288.225,97.725 288.225,96.725 289.025,96.725 289.025,93.626 288.225,93.626 288.225,87.826 289.025,87.826 289.025,84.725 288.225,84.725 288.225,83.725" style="fill:none;stroke-width:0.050000mm;stroke:black"/>
<polygon points="255.175,83.725 255.175,84.725 254.376,84.725 254.376,87.826 255.175,87.826 255.175,93.626 254.376,93.626 254.376,96.725 255.175,96.725 255.175,97.725 269.175,97.725 269.175,96.725 269.975,96.725 269.975,93.626 269.175,93.626 269.175,87.826 269.975,87.826 269.975,84.725 269.175,84.725 269.175,83.725" style="fill:none;stroke-width:0.050000mm;stroke:black"/>
<polygon points="236.126,83.725 236.126,84.725 235.326,84.725 235.326,87.826 236.126,87.826 236.126,93.626 235.326,93.626 235.326,96.725 236.126,96.725 236.126,97.725 250.126,97.725 250.126,96.725 250.925,96.725 250.925,93.626 250.126,93.626 250.126,87.826 250.925,87.826 250.925,84.725 250.126,84.725 250.126,83.725" style="fill:none;stroke-width:0.050000mm;stroke:black"/>
<polygon points="217.076,83.725 217.076,84.725 216.275,84.725 216.275,87.826 217.076,87.826 217.076,93.626 216.275,93.626 216.275,96.725 217.076,96.725 217.076,97.725 231.076,97.725 231.076,96.725 231.876,96.725 231.876,93.626 231.076,93.626 231.076,87.826 231.876,87.826 231.876,84.725 231.076,84.725 231.076,83.725" style="fill:none;stroke-width:0.050000mm;stroke:black"/>
<polygon points="198.025,83.725 198.025,84.725 197.226,84.725 197.226,87.826 198.025,87.826 198.025,93.626 197.226,93.626 197.226,96.725 198.025,96.725 198.025,97.725 212.025,97.725 212.025,96.725 212.826,96.725 212.826,93.626 212.025,93.626 212.025,87.826 212.826,87.826 212.826,84.725 212.025,84.725 212.025,83.725" style="fill:none;stroke-width:0.050000mm;stroke:black"/>
<polygon points="57.532,83.725 57.532,84.725 56.731,84.725 56.731,87.826 57.532,87.826 57.532,93.626 56.731,93.626 56.731,96.725 57.532,96.725 57.532,97.725 71.532,97.725 71.532,96.725 72.332,96.725 72.332,93.626 71.532,93.626 71.532,87.826 72.332,87.826 72.332,84.725 71.532,84.725 71.532,83.725" style="fill:none;stroke-width:0.050000mm;stroke:black"/>
<polygon points="33.719,83.725 33.719,84.725 32.919,84.725 32.919,87.826 33.719,87.826 33.719,93.626 32.919,93.626 32.919,96.725 33.719,96.725 33.719,97.725 47.719,97.725 47.719,96.725 48.520,96.725 48.520,93.626 47.719,93.626 47.719,87.826 48.520,87.826 48.520,84.725 47.719,84.725 47.719,83.725" style="fill:none;stroke-width:0.050000mm;stroke:black"/>
<polygon points="9.907,83.725 9.907,84.725 9.107,84.725 9.107,87.826 9.907,87.826 9.907,93.626 9.107,93.626 9.107,96.725 9.907,96.725 9.907,97.725 23.907,97.725 23.907,96.725 24.707,96.725 24.707,93.626 23.907,93.626 23.907,87.826 24.707,87.826 24.707,84.725 23.907,84.725 23.907,83.725" style="fill:none;stroke-width:0.050000mm;stroke:black"/>
<polygon points="19.431,64.675 19.431,65.675 18.632,65.675 18.632,68.775 19.431,68.775 19.431,69.376 17.907,69.376 17.907,66.145 16.181,66.145 16.181,65.225 12.882,65.225 12.882,66.145 11.157,66.145 11.157,69.376 10.332,69.376 10.332,72.175 11.157,72.175 11.157,78.445 12.882,78.445 12.882,79.425 16.181,79.425 16.181,78.445 17.907,78.445 17.907,73.975 19.431,73.975 19.431,74.576 18.632,74.576 18.632,77.675 19.431,77.675 19.431,78.675 33.431,78.675 33.431,77.675 34.231,77.675 34.231,74.576 33.431,74.576 33.431,73.975 34.957,73.975 34.957,78.445 36.681,78.445 36.681,79.425 39.981,79.425 39.981,78.445 41.707,78.445 41.707,72.175 42.532,72.175 42.532,69.376 41.707,69.376 41.707,66.145 39.981,66.145 39.981,65.225 36.681,65.225 36.681,66.145 34.957,66.145 34.957,69.376 33.431,69.376 33.431,68.775 34.231,68.775 34.231,65.675 33.431,65.675 33.431,64.675" style="fill:none;stroke-width:0.050000mm;stroke:black"/>
<polygon points="293.275,64.675 293.275,65.675 292.475,65.675 292.475,68.775 293.275,68.775 293.275,74.576 292.475,74.576 292.475,77.675 293.275,77.675 293.275,78.675 307.275,78.675 307.275,77.675 308.075,77.675 308.075,74.576 307.275,74.576 307.275,68.775 308.075,68.775 308.075,65.675 307.275,65.675 307.275,64.675" style="fill:none;stroke-width:0.050000mm;stroke:black"/>
<polygon points="274.225,64.675 274.225,65.675 273.425,65.675 273.425,68.775 274.225,68.775 274.225,74.576 273.425,74.576 273.425,77.675 274.225,77.675 274.225,78.675 288.225,78.675 288.225,77.675 289.025,77.675 289.025,74.576 288.225,74.576 288.225,68.775 289.025,68.775 289.025,65.675 288.225,65.675 288.225,64.675" style="fill:none;stroke-width:0.050000mm;stroke:black"/>
<polygon points="248.031,64.675 248.031,65.675 247.232,65.675 247.232,68.775 248.031,68.775 248.031,74.576 247.232,74.576 247.232,77.675 248.031,77.675 248.031,78.675 262.031,78.675 262.031,77.675 262.831,77.675 262.831,74.576 262.031,74.576 262.031,68.775 262.831,68.775 262.831,65.675 262.031,65.675 262.031,64.675" style="fill:none;stroke-width:0.050000mm;stroke:black"/>
<polygon points="221.839,64.675 221.839,65.675 221.038,65.675 221.038,68.775 221.839,68.775 221.839,74.576 221.038,74.576 221.038,77.675 221.839,77.675 221.839,78.675 235.839,78.675 235.839,77.675 236.638,77.675 236.638,74.576 235.839,74.576 235.839,68.775 236.638,68.775 236.638,65.675 235.839,65.675 235.839,64.675" style="fill:none;stroke-width:0.050000mm;stroke:black"/>
<polygon points="202.788,64.675 202.788,65.675 201.989,65.675 201.989,68.775 202.788,68.775 202.788,74.576 201.989,74.576 201.989,77.675 202.788,77.675 202.788,78.675 216.788,78.675 216.788,77.675 217.589,77.675 217.589,74.576 216.788,74.576 216.788,68.775 217.589,68.775 217.589,65.675 216.788,65.675 216.788,64.675" style="fill:none;stroke-width:0.050000mm;stroke:black"/>
<polygon points="183.739,64.675 183.739,65.675 182.939,65.675 182.939,68.775 183.739,68.775 183.739,74.576 182.939,74.576 182.939,77.675 183.739,77.675 183.739,78.675 197.739,78.675 197.739,77.675 198.538,77.675 198.538,74.576 197.739,74.576 197.739,68.775 198.538,68.775 198.538,65.675 197.739,65.675 197.739,64.675" style="fill:none;stroke-width:0.050000mm;stroke:black"/>
<polygon points="164.689,64.675 164.689,65.675 163.888,65.675 163.888,68.775 164.689,68.775 164.689,74.576 163.888,74.576 163.888,77.675 164.689,77.675 164.689,78.675 178.689,78.675 178.689,77.675 179.489,77.675 179.489,74.576 178.689,74.576 178.689,68.775 179.489,68.775 179.489,65.675 178.689,65.675 178.689,64.675" style="fill:none;stroke-width:0.050000mm;stroke:black"/>
<polygon points="145.638,64.675 145.638,65.675 144.839,65.675 144.839,68.775 145.638,68.775 145.638,74.576 144.839,74.576 144.839,77.675 145.638,77.675 145.638,78.675 159.638,78.675 159.638,77.675 160.439,77.675 160.439,74.576 159.638,74.576 159.638,68.775 160.439,68.775 160.439,65.675 159.638,65.675 159.638,64.675" style="fill:none;stroke-width:0.050000mm;stroke:black"/>
<polygon points="126.589,64.675 126.589,65.675 125.788,65.675 125.788,68.775 126.589,68.775 126.589,74.576 125.788,74.576 125.788,77.675 126.589,77.675 126.589,78.675 140.589,78.675 140.589,77.675 141.388,77.675 141.388,74.576 140.589,74.576 140.589,68.775 141.388,68.775 141.388,65.675 140.589,65.675 140.589,64.675" style="fill:none;stroke-width:0.050000mm;stroke:black"/>
<polygon points="107.538,64.675 107.538,65.675 106.739,65.675 106.739,68.775 107.538,68.775 107.538,74.576 106.739,74.576 106.739,77.675 107.538,77.675 107.538,78.675 121.538,78.675 121.538,77.675 122.338,77.675 122.338,74.576 121.538,74.576 121.538,68.775 122.338,68.775 122.338,65.675 121.538,65.675 121.538,64.675" style="fill:none;stroke-width:0.050000mm;stroke:black"/>
<polygon points="88.489,64.675 88.489,65.675 87.689,65.675 87.689,68.775 88.489,68.775 88.489,74.576 87.689,74.576 87.689,77.675 88.489,77.675 88.489,78.675 102.489,78.675 102.489,77.675 103.288,77.675 103.288,74.576 102.489,74.576 102.489,68.775 103.288,68.775 103.288,65.675 102.489,65.675 102.489,64.675" style="fill:none;stroke-width:0.050000mm;stroke:black"/>
<polygon points="69.439,64.675 69.439,65.675 68.639,65.675 68.639,68.775 69.439,68.775 69.439,74.576 68.639,74.576 68.639,77.675 69.439,77.675 69.439,78.675 83.439,78.675 83.439,77.675 84.239,77.675 84.239,74.576 83.439,74.576 83.439,68.775 84.239,68.775 84.239,65.675 83.439,65.675 83.439,64.675" style="fill:none;stroke-width:0.050000mm;stroke:black"/>
<polygon points="50.389,64.675 50.389,65.675 49.588,65.675 49.588,68.775 50.389,68.775 50.389,74.576 49.588,74.576 49.588,77.675 50.389,77.675 50.389,78.675 64.389,78.675 64.389,77.675 65.189,77.675 65.189,74.576 64.389,74.576 64.389,68.775 65.189,68.775 65.189,65.675 64.389,65.675 64.389,64.675" style="fill:none;stroke-width:0.050000mm;stroke:black"/>
<polygon points="262.318,45.626 262.318,46.626 261.519,46.626 261.519,49.725 262.318,49.725 262.318,50.325 260.794,50.325 260.794,47.096 259.068,47.096 259.068,46.175 255.769,46.175 255.769,47.096 254.044,47.096 254.044,50.325 253.220,50.325 253.220,53.126 254.044,53.126 254.044,59.395 255.769,59.395 255.769,60.376 259.068,60.376 259.068,59.395 260.794,59.395 260.794,54.925 262.318,54.925 262.318,55.526 261.519,55.526 261.519,58.626 262.318,58.626 262.318,59.626 276.319,59.626 276.319,58.626 277.119,58.626 277.119,55.526 276.319,55.526 276.319,54.925 277.844,54.925 277.844,59.395 279.569,59.395 279.569,60.376 282.869,60.376 282.869,59.395 284.594,59.395 284.594,53.126 285.419,53.126 285.419,50.325 284.594,50.325 284.594,47.096 282.869,47.096 282.869,46.175 279.569,46.175 279.569,47.096 277.844,47.096 277.844,50.325 276.319,50.325 276.319,49.725 277.119,49.725 277.119,46.626 276.319,46.626 276.319,45.626" style="fill:none;stroke-width:0.050000mm;stroke:black"/>
<polygon points="231.364,45.626 231.364,46.626 230.564,46.626 230.564,49.725 231.364,49.725 231.364,55.526 230.564,55.526 230.564,58.626 231.364,58.626 231.364,59.626 245.364,59.626 245.364,58.626 246.163,58.626 246.163,55.526 245.364,55.526 245.364,49.725 246.163,49.725 246.163,46.626 245.364,46.626 245.364,45.626" style="fill:none;stroke-width:0.050000mm;stroke:black"/>
<polygon points="212.314,45.626 212.314,46.626 211.513,46.626 211.513,49.725 212.314,49.725 212.314,55.526 211.513,55.526 211.513,58.626 212.314,58.626 212.314,59.626 226.314,59.626 226.314,58.626 227.114,58.626 227.114,55.526 226.314,55.526 226.314,49.725 227.114,49.725 227.114,46.626 226.314,46.626 226.314,45.626" style="fill:none;stroke-width:0.050000mm;stroke:black"/>
<polygon points="193.263,45.626 193.263,46.626 192.464,46.626 192.464,49.725 193.263,49.725 193.263,55.526 192.464,55.526 192.464,58.626 193.263,58.626 193.263,59.626 207.263,59.626 207.263,58.626 208.064,58.626 208.064,55.526 207.263,55.526 207.263,49.725 208.064,49.725 208.064,46.626 207.263,46.626 207.263,45.626" style="fill:none;stroke-width:0.050000mm;stroke:black"/>
<polygon points="174.214,45.626 174.214,46.626 173.413,46.626 173.413,49.725 174.214,49.725 174.214,55.526 173.413,55.526 173.413,58.626 174.214,58.626 174.214,59.626 188.214,59.626 188.214,58.626 189.013,58.626 189.013,55.526 188.214,55.526 188.214,49.725 189.013,49.725 189.013,46.626 188.214,46.626 188.214,45.626" style="fill:none;stroke-width:0.050000mm;stroke:black"/>
<polygon points="155.163,45.626 155.163,46.626 154.363,46.626 154.363,49.725 155.163,49.725 155.163,55.526 154.363,55.526 154.363,58.626 155.163,58.626 155.163,59.626 169.163,59.626 169.163,58.626 169.964,58.626 169.964,55.526 169.163,55.526 169.163,49.725 169.964,49.725 169.964,46.626 169.163,46.626 169.163,45.626" style="fill:none;stroke-width:0.050000mm;stroke:black"/>
<polygon points="136.113,45.626 136.113,46.626 135.312,46.626 135.312,49.725 136.113,49.725 136.113,55.526 135.312,55.526 135.312,58.626 136.113,58.626 136.113,59.626 150.113,59.626 150.113,58.626 150.913,58.626 150.913,55.526 150.113,55.526 150.113,49.725 150.913,49.725 150.913,46.626 150.113,46.626 150.113,45.626" style="fill:none;stroke-width:0.050000mm;stroke:black"/>
<polygon points="117.062,45.626 117.062,46.626 116.263,46.626 116.263,49.725 117.062,49.725 117.062,55.526 116.263,55.526 116.263,58.626 117.062,58.626 117.062,59.626 131.064,59.626 131.064,58.626 131.863,58.626 131.863,55.526 131.064,55.526 131.064,49.725 131.863,49.725 131.863,46.626 131.064,46.626 131.064,45.626" style="fill:none;stroke-width:0.050000mm;stroke:black"/>
<polygon points="98.013,45.626 98.013,46.626 97.213,46.626 97.213,49.725 98.013,49.725 98.013,55.526 97.213,55.526 97.213,58.626 98.013,58.626 98.013,59.626 112.013,59.626 112.013,58.626 112.812,58.626 112.812,55.526 112.013,55.526 112.013,49.725 112.812,49.725 112.812,46.626 112.013,46.626 112.013,45.626" style="fill:none;stroke-width:0.050000mm;stroke:black"/>
<polygon points="78.963,45.626 78.963,46.626 78.163,46.626 78.163,49.725 78.963,49.725 78.963,55.526 78.163,55.526 78.163,58.626 78.963,58.626 78.963,59.626 92.963,59.626 92.963,58.626 93.763,58.626 93.763,55.526 92.963,55.526 92.963,49.725 93.763,49.725 93.763,46.626 92.963,46.626 92.963,45.626" style="fill:none;stroke-width:0.050000mm;stroke:black"/>
<polygon points="59.912,45.626 59.912,46.626 59.114,46.626 59.114,49.725 59.912,49.725 59.912,55.526 59.114,55.526 59.114,58.626 59.912,58.626 59.912,59.626 73.913,59.626 73.913,58.626 74.713,58.626 74.713,55.526 73.913,55.526 73.913,49.725 74.713,49.725 74.713,46.626 73.913,46.626 73.913,45.626" style="fill:none;stroke-width:0.050000mm;stroke:black"/>
<polygon points="40.864,45.626 40.864,46.626 40.064,46.626 40.064,49.725 40.864,49.725 40.864,55.526 40.064,55.526 40.064,58.626 40.864,58.626 40.864,59.626 54.864,59.626 54.864,58.626 55.662,58.626 55.662,55.526 54.864,55.526 54.864,49.725 55.662,49.725 55.662,46.626 54.864,46.626 54.864,45.626" style="fill:none;stroke-width:0.050000mm;stroke:black"/>
<polygon points="14.670,45.626 14.670,46.626 13.870,46.626 13.870,49.725 14.670,49.725 14.670,55.526 13.870,55.526 13.870,58.626 14.670,58.626 14.670,59.626 28.670,59.626 28.670,58.626 29.470,58.626 29.470,55.526 28.670,55.526 28.670,49.725 29.470,49.725 29.470,46.626 28.670,46.626 28.670,45.626" style="fill:none;stroke-width:0.050000mm;stroke:black"/>
<polygon points="293.275,26.575 293.275,27.575 292.475,27.575 292.475,30.675 293.275,30.675 293.275,36.475 292.475,36.475 292.475,39.575 293.275,39.575 293.275,40.575 307.275,40.575 307.275,39.575 308.075,39.575 308.075,36.475 307.275,36.475 307.275,30.675 308.075,30.675 308.075,27.575 307.275,27.575 307.275,26.575" style="fill:none;stroke-width:0.050000mm;stroke:black"/>
<polygon points="269.463,26.575 269.463,27.575 268.663,27.575 268.663,30.675 269.463,30.675 269.463,36.475 268.663,36.475 268.663,39.575 269.463,39.575 269.463,40.575 283.463,40.575 283.463,39.575 284.263,39.575 284.263,36.475 283.463,36.475 283.463,30.675 284.263,30.675 284.263,27.575 283.463,27.575 283.463,26.575" style="fill:none;stroke-width:0.050000mm;stroke:black"/>
<polygon points="245.650,26.575 245.650,27.575 244.851,27.575 244.851,30.675 245.650,30.675 245.650,36.475 244.851,36.475 244.851,39.575 245.650,39.575 245.650,40.575 259.650,40.575 259.650,39.575 260.450,39.575 260.450,36.475 259.650,36.475 259.650,30.675 260.450,30.675 260.450,27.575 259.650,27.575 259.650,26.575" style="fill:none;stroke-width:0.050000mm;stroke:black"/>
<polygon points="226.601,26.575 226.601,27.575 225.800,27.575 225.800,30.675 226.601,30.675 226.601,36.475 225.800,36.475 225.800,39.575 226.601,39.575 226.601,40.575 240.601,40.575 240.601,39.575 241.400,39.575 241.400,36.475 240.601,36.475 240.601,30.675 241.400,30.675 241.400,27.575 240.601,27.575 240.601,26.575" style="fill:none;stroke-width:0.050000mm;stroke:black"/>
<polygon points="207.550,26.575 207.550,27.575 206.751,27.575 206.751,30.675 207.550,30.675 207.550,36.475 206.751,36.475 206.751,39.575 207.550,39.575 207.550,40.575 221.550,40.575 221.550,39.575 222.351,39.575 222.351,36.475 221.550,36.475 221.550,30.675 222.351,30.675 222.351,27.575 221.550,27.575 221.550,26.575" style="fill:none;stroke-width:0.050000mm;stroke:black"/>
<polygon points="188.501,26.575 188.501,27.575 187.701,27.575 187.701,30.675 188.501,30.675 188.501,36.475 187.701,36.475 187.701,39.575 188.501,39.575 188.501,40.575 202.501,40.575 202.501,39.575 203.300,39.575 203.300,36.475 202.501,36.475 202.501,30.675 203.300,30.675 203.300,27.575 202.501,27.575 202.501,26.575" style="fill:none;stroke-width:0.050000mm;stroke:black"/>
<polygon points="169.451,26.575 169.451,27.575 168.650,27.575 168.650,30.675 169.451,30.675 169.451,36.475 168.650,36.475 168.650,39.575 169.451,39.575 169.451,40.575 183.451,40.575 183.451,39.575 184.251,39.575 184.251,36.475 183.451,36.475 183.451,30.675 184.251,30.675 184.251,27.575 183.451,27.575 183.451,26.575" style="fill:none;stroke-width:0.050000mm;stroke:black"/>
<polygon points="150.400,26.575 150.400,27.575 149.601,27.575 149.601,30.675 150.400,30.675 150.400,36.475 149.601,36.475 149.601,39.575 150.400,39.575 150.400,40.575 164.400,40.575 164.400,39.575 165.201,39.575 165.201,36.475 164.400,36.475 164.400,30.675 165.201,30.675 165.201,27.575 164.400,27.575 164.400,26.575" style="fill:none;stroke-width:0.050000mm;stroke:black"/>
<polygon points="131.351,26.575 131.351,27.575 130.550,27.575 130.550,30.675 131.351,30.675 131.351,36.475 130.550,36.475 130.550,39.575 131.351,39.575 131.351,40.575 145.351,40.575 145.351,39.575 146.150,39.575 146.150,36.475 145.351,36.475 145.351,30.675 146.150,30.675 146.150,27.575 145.351,27.575 145.351,26.575" style="fill:none;stroke-width:0.050000mm;stroke:black"/>
<polygon points="112.300,26.575 112.300,27.575 111.501,27.575 111.501,30.675 112.300,30.675 112.300,36.475 111.501,36.475 111.501,39.575 112.300,39.575 112.300,40.575 126.300,40.575 126.300,39.575 127.101,39.575 127.101,36.475 126.300,36.475 126.300,30.675 127.101,30.675 127.101,27.575 126.300,27.575 126.300,26.575" style="fill:none;stroke-width:0.050000mm;stroke:black"/>
<polygon points="93.251,26.575 93.251,27.575 92.451,27.575 92.451,30.675 93.251,30.675 93.251,36.475 92.451,36.475 92.451,39.575 93.251,39.575 93.251,40.575 107.251,40.575 107.251,39.575 108.050,39.575 108.050,36.475 107.251,36.475 107.251,30.675 108.050,30.675 108.050,27.575 107.251,27.575 107.251,26.575" style="fill:none;stroke-width:0.050000mm;stroke:black"/>
<polygon points="74.201,26.575 74.201,27.575 73.401,27.575 73.401,30.675 74.201,30.675 74.201,36.475 73.401,36.475 73.401,39.575 74.201,39.575 74.201,40.575 88.201,40.575 88.201,39.575 89.001,39.575 89.001,36.475 88.201,36.475 88.201,30.675 89.001,30.675 89.001,27.575 88.201,27.575 88.201,26.575" style="fill:none;stroke-width:0.050000mm;stroke:black"/>
<polygon points="55.151,26.575 55.151,27.575 54.350,27.575 54.350,30.675 55.151,30.675 55.151,36.475 54.350,36.475 54.350,39.575 55.151,39.575 55.151,40.575 69.151,40.575 69.151,39.575 69.951,39.575 69.951,36.475 69.151,36.475 69.151,30.675 69.951,30.675 69.951,27.575 69.151,27.575 69.151,26.575" style="fill:none;stroke-width:0.050000mm;stroke:black"/>
<polygon points="36.100,26.575 36.100,27.575 35.300,27.575 35.300,30.675 36.100,30.675 36.100,36.475 35.300,36.475 35.300,39.575 36.100,39.575 36.100,40.575 50.100,40.575 50.100,39.575 50.901,39.575 50.901,36.475 50.100,36.475 50.100,30.675 50.901,30.675 50.901,27.575 50.100,27.575 50.100,26.575" style="fill:none;stroke-width:0.050000mm;stroke:black"/>
<polygon points="12.289,26.575 12.289,27.575 11.489,27.575 11.489,30.675 12.289,30.675 12.289,36.475 11.489,36.475 11.489,39.575 12.289,39.575 12.289,40.575 26.289,40.575 26.289,39.575 27.088,39.575 27.088,36.475 26.289,36.475 26.289,30.675 27.088,30.675 27.088,27.575 26.289,27.575 26.289,26.575" style="fill:none;stroke-width:0.050000mm;stroke:black"/>
<polygon points="264.700,7.525 264.700,8.525 263.900,8.525 263.900,11.625 264.700,11.625 264.700,12.225 263.175,12.225 263.175,8.995 261.450,8.995 261.450,8.075 258.150,8.075 258.150,8.995 256.425,8.995 256.425,12.225 255.601,12.225 255.601,15.025 256.425,15.025 256.425,21.296 258.150,21.296 258.150,22.275 261.450,22.275 261.450,21.296 263.175,21.296 263.175,16.825 264.700,16.825 264.700,17.425 263.900,17.425 263.900,20.525 264.700,20.525 264.700,21.525 278.700,21.525 278.700,20.525 279.500,20.525 279.500,17.425 278.700,17.425 278.700,16.825 280.225,16.825 280.225,21.296 281.950,21.296 281.950,22.275 285.250,22.275 285.250,21.296 286.975,21.296 286.975,15.025 287.800,15.025 287.800,12.225 286.975,12.225 286.975,8.995 285.250,8.995 285.250,8.075 281.950,8.075 281.950,8.995 280.225,8.995 280.225,12.225 278.700,12.225 278.700,11.625 279.500,11.625 279.500,8.525 278.700,8.525 278.700,7.525" style="fill:none;stroke-width:0.050000mm;stroke:black"/>
<polygon points="293.275,7.525 293.275,8.525 292.475,8.525 292.475,11.625 293.275,11.625 293.275,17.425 292.475,17.425 292.475,20.525 293.275,20.525 293.275,21.525 307.275,21.525 307.275,20.525 308.075,20.525 308.075,17.425 307.275,17.425 307.275,11.625 308.075,11.625 308.075,8.525 307.275,8.525 307.275,7.525" style="fill:none;stroke-width:0.050000mm;stroke:black"/>
<polygon points="236.126,7.525 236.126,8.525 235.326,8.525 235.326,11.625 236.126,11.625 236.126,17.425 235.326,17.425 235.326,20.525 236.126,20.525 236.126,21.525 250.126,21.525 250.126,20.525 250.925,20.525 250.925,17.425 250.126,17.425 250.126,11.625 250.925,11.625 250.925,8.525 250.126,8.525 250.126,7.525" style="fill:none;stroke-width:0.050000mm;stroke:black"/>
<polygon points="217.076,7.525 217.076,8.525 216.275,8.525 216.275,11.625 217.076,11.625 217.076,17.425 216.275,17.425 216.275,20.525 217.076,20.525 217.076,21.525 231.076,21.525 231.076,20.525 231.876,20.525 231.876,17.425 231.076,17.425 231.076,11.625 231.876,11.625 231.876,8.525 231.076,8.525 231.076,7.525" style="fill:none;stroke-width:0.050000mm;stroke:black"/>
<polygon points="198.025,7.525 198.025,8.525 197.226,8.525 197.226,11.625 198.025,11.625 198.025,17.425 197.226,17.425 197.226,20.525 198.025,20.525 198.025,21.525 212.025,21.525 212.025,20.525 212.826,20.525 212.826,17.425 212.025,17.425 212.025,11.625 212.826,11.625 212.826,8.525 212.025,8.525 212.025,7.525" style="fill:none;stroke-width:0.050000mm;stroke:black"/>
<polygon points="178.976,7.525 178.976,8.525 178.175,8.525 178.175,11.625 178.976,11.625 178.976,17.425 178.175,17.425 178.175,20.525 178.976,20.525 178.976,21.525 192.976,21.525 192.976,20.525 193.775,20.525 193.775,17.425 192.976,17.425 192.976,11.625 193.775,11.625 193.775,8.525 192.976,8.525 192.976,7.525" style="fill:none;stroke-width:0.050000mm;stroke:black"/>
<polygon points="159.925,7.525 159.925,8.525 159.126,8.525 159.126,11.625 159.925,11.625 159.925,17.425 159.126,17.425 159.126,20.525 159.925,20.525 159.925,21.525 173.925,21.525 173.925,20.525 174.726,20.525 174.726,17.425 173.925,17.425 173.925,11.625 174.726,11.625 174.726,8.525 173.925,8.525 173.925,7.525" style="fill:none;stroke-width:0.050000mm;stroke:black"/>
<polygon points="140.876,7.525 140.876,8.525 140.076,8.525 140.076,11.625 140.876,11.625 140.876,17.425 140.076,17.425 140.076,20.525 140.876,20.525 140.876,21.525 154.876,21.525 154.876,20.525 155.675,20.525 155.675,17.425 154.876,17.425 154.876,11.625 155.675,11.625 155.675,8.525 154.876,8.525 154.876,7.525" style="fill:none;stroke-width:0.050000mm;stroke:black"/>
<polygon points="121.826,7.525 121.826,8.525 121.026,8.525 121.026,11.625 121.826,11.625 121.826,17.425 121.026,17.425 121.026,20.525 121.826,20.525 121.826,21.525 135.826,21.525 135.826,20.525 136.626,20.525 136.626,17.425 135.826,17.425 135.826,11.625 136.626,11.625 136.626,8.525 135.826,8.525 135.826,7.525" style="fill:none;stroke-width:0.050000mm;stroke:black"/>
<polygon points="102.776,7.525 102.776,8.525 101.976,8.525 101.976,11.625 102.776,11.625 102.776,17.425 101.976,17.425 101.976,20.525 102.776,20.525 102.776,21.525 116.776,21.525 116.776,20.525 117.576,20.525 117.576,17.425 116.776,17.425 116.776,11.625 117.576,11.625 117.576,8.525 116.776,8.525 116.776,7.525" style="fill:none;stroke-width:0.050000mm;stroke:black"/>
<polygon points="83.726,7.525 83.726,8.525 82.925,8.525 82.925,11.625 83.726,11.625 83.726,17.425 82.925,17.425 82.925,20.525 83.726,20.525 83.726,21.525 97.726,21.525 97.726,20.525 98.526,20.525 98.526,17.425 97.726,17.425 97.726,11.625 98.526,11.625 98.526,8.525 97.726,8.525 97.726,7.525" style="fill:none;stroke-width:0.050000mm;stroke:black"/>
<polygon points="64.675,7.525 64.675,8.525 63.876,8.525 63.876,11.625 64.675,11.625 64.675,17.425 63.876,17.425 63.876,20.525 64.675,20.525 64.675,21.525 78.675,21.525 78.675,20.525 79.476,20.525 79.476,17.425 78.675,17.425 78.675,11.625 79.476,11.625 79.476,8.525 78.675,8.525 78.675,7.525" style="fill:none;stroke-width:0.050000mm;stroke:black"/>
<polygon points="45.626,7.525 45.626,8.525 44.826,8.525 44.826,11.625 45.626,11.625 45.626,17.425 44.826,17.425 44.826,20.525 45.626,20.525 45.626,21.525 59.626,21.525 59.626,20.525 60.425,20.525 60.425,17.425 59.626,17.425 59.626,11.625 60.425,11.625 60.425,8.525 59.626,8.525 59.626,7.525" style="fill:none;stroke-width:0.050000mm;stroke:black"/>
<polygon points="26.576,7.525 26.576,8.525 25.776,8.525 25.776,11.625 26.576,11.625 26.576,17.425 25.776,17.425 25.776,20.525 26.576,20.525 26.576,21.525 40.576,21.525 40.576,20.525 41.376,20.525 41.376,17.425 40.576,17.425 40.576,11.625 41.376,11.625 41.376,8.525 40.576,8.525 40.576,7.525" style="fill:none;stroke-width:0.050000mm;stroke:black"/>
<polygon points="7.526,7.525 7.526,8.525 6.726,8.525 6.726,11.625 7.526,11.625 7.526,17.425 6.726,17.425 6.726,20.525 7.526,20.525 7.526,21.525 21.526,21.525 21.526,20.525 22.326,20.525 22.326,17.425 21.526,17.425 21.526,11.625 22.326,11.625 22.326,8.525 21.526,8.525 21.526,7.525" style="fill:none;stroke-width:0.050000mm;stroke:black"/>
</svg>
